
        <svg xmlns="http://www.w3.org/2000/svg" xmlns:xlink="http://www.w3.org/1999/xlink" version="1.1" width="3199.1599560593754" height="704.0817038257255" viewBox="0 0 3199.1599560593754 704.0817038257255">
			
			<g transform="scale(9.95799780296877) translate(10, 10)">
				<defs id="SvgjsDefs2646"><linearGradient id="SvgjsLinearGradient2651"><stop id="SvgjsStop2652" stop-color="#006838" offset="0"/><stop id="SvgjsStop2653" stop-color="#96cf24" offset="1"/></linearGradient></defs><g id="SvgjsG2647" featureKey="symbolFeature-0" transform="matrix(1.1428112035836255,0,0,1.1428112035836255,-13.216614359511045,-31.41555597029113)" fill="#fff"><path xmlns="http://www.w3.org/2000/svg" d="M29.399,57.112c0.615,0.308,1.077,0.846,1.077,1.383c0,1.039-1.038,1.961-1.999,1.462l-15.223-7.881  c-0.846-0.499-1.576-0.808-1.576-1.884c0-1.115,0.692-1.385,1.576-1.922l15.223-7.881c1.038-0.346,1.999,0.424,1.999,1.462  c0,0.575-0.461,1.114-1.077,1.423l-13.761,6.918L29.399,57.112z"/><path xmlns="http://www.w3.org/2000/svg" d="M29.033,60.209c-0.208,0-0.413-0.052-0.608-0.152l-15.223-7.881c-0.086-0.05-0.165-0.095-0.242-0.141  c-0.748-0.431-1.395-0.804-1.395-1.843c0-1.057,0.594-1.406,1.346-1.849c0.093-0.054,0.187-0.11,0.284-0.169l15.229-7.885  c0.195-0.066,0.377-0.097,0.558-0.097c0.9,0,1.606,0.728,1.606,1.658c0,0.587-0.437,1.172-1.139,1.522l-13.562,6.818l13.562,6.818  c0.691,0.346,1.139,0.93,1.139,1.484C30.588,59.407,29.861,60.209,29.033,60.209z M28.982,40.419c-0.156,0-0.314,0.026-0.47,0.078  L13.306,48.37c-0.091,0.057-0.188,0.113-0.281,0.167c-0.743,0.439-1.234,0.728-1.234,1.655c0,0.91,0.537,1.219,1.281,1.648  c0.079,0.045,0.158,0.09,0.239,0.139l15.217,7.877c0.162,0.084,0.332,0.127,0.504,0.127c0.697,0,1.33-0.709,1.33-1.488  c0-0.465-0.407-0.98-1.014-1.283l-13.962-7.02l13.962-7.02c0.616-0.308,1.014-0.828,1.014-1.321  C30.363,41.048,29.756,40.419,28.982,40.419z"/><path xmlns="http://www.w3.org/2000/svg" d="M46.385,64.416c-0.231,0.691-0.922,1.077-1.614,0.961c-0.769-0.153-1.269-0.885-1.154-1.692  c0-0.076,0.039-0.191,0.077-0.307l9.88-27.831c0.23-0.692,0.922-1.038,1.614-0.923c0.73,0.154,1.269,0.885,1.153,1.652  c0,0.078-0.039,0.193-0.077,0.27L46.385,64.416z"/><path xmlns="http://www.w3.org/2000/svg" d="M45.016,65.511c-0.088,0-0.177-0.008-0.263-0.022c-0.837-0.167-1.371-0.949-1.247-1.819  c-0.001-0.076,0.038-0.193,0.079-0.318l9.883-27.842c0.207-0.618,0.778-1.02,1.457-1.02c0.094,0,0.188,0.009,0.281,0.023  c0.812,0.172,1.369,0.97,1.247,1.781c0.001,0.086-0.047,0.22-0.087,0.302l-9.875,27.856C46.281,65.084,45.688,65.511,45.016,65.511z   M54.925,34.715c-0.58,0-1.068,0.34-1.244,0.867l-9.88,27.833c-0.035,0.104-0.07,0.213-0.07,0.27  c-0.108,0.767,0.349,1.439,1.062,1.582c0.071,0.012,0.147,0.018,0.223,0.018c0.575,0,1.083-0.363,1.263-0.904l9.881-27.872  c0.041-0.085,0.07-0.182,0.07-0.231c0.105-0.712-0.373-1.396-1.064-1.543C55.089,34.722,55.007,34.715,54.925,34.715z"/><path xmlns="http://www.w3.org/2000/svg" d="M84.362,50.192L70.6,43.274c-0.614-0.309-1.075-0.848-1.075-1.423c0-1.038,1.037-1.962,1.998-1.462l15.223,7.881  c0.885,0.537,1.576,0.807,1.576,1.922c0,1.076-0.73,1.385-1.576,1.884l-15.223,7.881c-0.961,0.499-1.998-0.423-1.998-1.462  c0-0.537,0.461-1.075,1.075-1.383L84.362,50.192z"/><path xmlns="http://www.w3.org/2000/svg" d="M70.967,60.209c-0.828,0-1.556-0.802-1.556-1.714c0-0.555,0.447-1.139,1.139-1.484l13.562-6.818L70.55,43.374  c-0.702-0.352-1.139-0.936-1.139-1.522c0-0.913,0.728-1.714,1.556-1.714c0.209,0,0.413,0.051,0.608,0.152l15.223,7.881  c0.104,0.062,0.198,0.119,0.29,0.173c0.753,0.442,1.347,0.792,1.347,1.849c0,1.039-0.646,1.412-1.395,1.843  c-0.078,0.046-0.157,0.091-0.237,0.138l-15.228,7.884C71.38,60.157,71.176,60.209,70.967,60.209z M70.967,40.363  c-0.696,0-1.33,0.709-1.33,1.488c0,0.493,0.397,1.013,1.014,1.321l13.962,7.02l-13.962,7.02c-0.606,0.305-1.014,0.82-1.014,1.283  c0,0.779,0.634,1.488,1.33,1.488c0.172,0,0.342-0.043,0.504-0.127l15.223-7.88c0.075-0.046,0.155-0.091,0.233-0.136  c0.744-0.43,1.282-0.738,1.282-1.648c0-0.928-0.491-1.216-1.235-1.655c-0.093-0.054-0.188-0.11-0.287-0.17l-15.216-7.876  C71.309,40.405,71.139,40.363,70.967,40.363z"/></g><g id="SvgjsG2648" featureKey="nameFeature-0" transform="matrix(1.6548676693867006,0,0,1.6548676693867006,108.0000007891024,-16.08531261013128)" fill="#fff"><path d="M13.24 37.84 c-1.5733 1.44 -3.7068 2.1602 -6.4 2.1602 l-6.84 0 l0 -30 l5.84 0 c1.6 0 2.9333 0.20668 4 0.62 s1.92 0.97332 2.56 1.68 s1.0867 1.5267 1.34 2.46 s0.38 1.9066 0.38 2.92 c0 1.0933 -0.32668 2.1266 -0.98 3.1 s-1.5266 1.8866 -2.62 2.74 c0.42668 0.26668 0.76 0.47336 1 0.62004 s0.46668 0.28668 0.68 0.42 c0.34668 0.29332 0.73336 0.64664 1.16 1.06 s0.82 0.89332 1.18 1.44 s0.66 1.1667 0.9 1.86 s0.36 1.4666 0.36 2.32 c0 1.4933 -0.22 2.7733 -0.66 3.84 s-1.0733 1.9867 -1.9 2.76 z M6.8 12 l-4.72 0.000078124 l0 10.8 l5.12 0 c0.72 0 1.38 -0.13332 1.98 -0.4 s1.12 -0.63336 1.56 -1.1 s0.78668 -1.0067 1.04 -1.62 s0.38 -1.28 0.38 -2 c0 -0.50668 -0.07332 -1.0934 -0.22 -1.76 s-0.42 -1.2867 -0.82 -1.86 s-0.94668 -1.06 -1.64 -1.46 s-1.5866 -0.6 -2.68 -0.6 z M7.04 24.8 l-4.96 0.000078124 l0 13.08 l4.28 0 c0.88 0 1.76 -0.10668 2.64 -0.32 s1.68 -0.57332 2.4 -1.08 s1.3 -1.1734 1.74 -2 s0.66 -1.8534 0.66 -3.08 c0 -1.12 -0.17332 -2.1 -0.52 -2.94 s-0.82668 -1.5267 -1.44 -2.06 s-1.3333 -0.93332 -2.16 -1.2 s-1.7067 -0.4 -2.64 -0.4 z M19.211000000000002 40 l0 -3.08 l3.16 0 l0 3.08 l-3.16 0 z M39.30200000000001 32.44 c-0.02668 1.3333 -0.15316 2.5 -0.37984 3.5 s-0.61336 1.8267 -1.16 2.48 s-1.2667 1.14 -2.16 1.46 s-2.02 0.48 -3.38 0.48 c-2.3467 0 -4.0532 -0.65332 -5.12 -1.96 s-1.6 -3.2934 -1.6 -5.96 l0 -14.8 c0 -2.6667 0.54 -4.6532 1.62 -5.96 s2.9267 -1.96 5.54 -1.96 c2.3467 0 4.0268 0.65332 5.04 1.96 s1.5466 3.2934 1.6 5.96 l0.04 1.84 l-1.84 0 l-0.04 -2.32 c0 -0.66668 -0.06668 -1.34 -0.2 -2.02 s-0.37332 -1.3 -0.72 -1.86 s-0.83336 -1.0133 -1.46 -1.36 s-1.46 -0.52 -2.5 -0.52 c-1.0133 0 -1.86 0.16 -2.54 0.48 s-1.22 0.76 -1.62 1.32 s-0.67332 1.22 -0.82 1.98 s-0.22 1.58 -0.22 2.46 l0.08 15 c0 1.84 0.34 3.28 1.02 4.32 s1.9267 1.56 3.74 1.56 c1.04 0 1.9 -0.14 2.58 -0.42 s1.2133 -0.67332 1.6 -1.18 s0.66 -1.12 0.82 -1.84 s0.24 -1.5067 0.24 -2.36 l0.04 -2.6 l1.84 0 z M51.353 40.36 c-5.04 0 -7.56 -2.64 -7.56 -7.92 l0 -14.8 c0 -2.6667 0.63332 -4.6532 1.9 -5.96 s3.3134 -1.96 6.14 -1.96 c2.5867 0 4.5 0.66 5.74 1.98 s1.86 3.2733 1.86 5.86 l0 14.88 c0 1.3333 -0.14 2.4933 -0.42 3.48 s-0.74 1.8134 -1.38 2.48 s-1.4733 1.16 -2.5 1.48 s-2.2867 0.48 -3.78 0.48 z M57.313 17.52 c0 -0.66668 -0.09328 -1.3468 -0.27996 -2.0401 s-0.49336 -1.3266 -0.92004 -1.9 s-0.99336 -1.04 -1.7 -1.4 s-1.58 -0.54 -2.62 -0.54 c-1.1467 0 -2.1 0.16 -2.86 0.48 s-1.36 0.76668 -1.8 1.34 s-0.75332 1.2466 -0.94 2.02 s-0.28 1.6133 -0.28 2.52 l0 14.2 c0 0.69332 0.08 1.4 0.24 2.12 s0.44668 1.38 0.86 1.98 s0.97332 1.0933 1.68 1.48 s1.5934 0.58 2.66 0.58 c1.1467 0 2.1 -0.15332 2.86 -0.46 s1.3667 -0.72668 1.82 -1.26 s0.78 -1.1666 0.98 -1.9 s0.3 -1.5266 0.3 -2.38 l0 -14.84 z M77.604 33.92 c-0.18668 0.82668 -0.46 1.6067 -0.82 2.34 s-0.83332 1.38 -1.42 1.94 s-1.3 1 -2.14 1.32 s-1.82 0.48 -2.94 0.48 l-7.28 0 l0 -30 l7 0 c2.0267 0 3.7267 0.47332 5.1 1.42 s2.26 2.54 2.66 4.78 c0.08 0.42668 0.14668 1.0867 0.2 1.98 s0.09332 1.92 0.12 3.08 s0.04 2.38 0.04 3.66 s-0.02 2.5067 -0.06 3.68 s-0.1 2.2333 -0.18 3.18 s-0.17332 1.66 -0.28 2.14 z M69.644 12.04 l-4.64 0.000039062 l0 25.8 l5.2 0 c0.72 0 1.36 -0.12668 1.92 -0.38 s1.06 -0.58664 1.5 -0.99996 s0.80668 -0.87332 1.1 -1.38 s0.53332 -1 0.72 -1.48 c0.13332 -0.34668 0.24664 -0.97336 0.33996 -1.88 s0.16 -1.94 0.2 -3.1 s0.06 -2.3933 0.06 -3.7 s-0.02 -2.5334 -0.06 -3.68 s-0.1 -2.16 -0.18 -3.04 s-0.17332 -1.4933 -0.28 -1.84 c-0.16 -0.48 -0.37332 -0.98 -0.64 -1.5 s-0.62 -0.98668 -1.06 -1.4 s-1 -0.75332 -1.68 -1.02 s-1.5133 -0.4 -2.5 -0.4 z M81.655 40 l0 -30 l14.72 0 l0 2.32 l-12.64 0 l0 11.4 l12.52 0 l0 1.84 l-12.52 0 l0 12.12 l12.92 0 l0 2.32 l-15 0 z M114.14600000000002 40 l-6.6 -12.44 l-6.12 0 l0 12.44 l-1.96 0 l0 -30 l6.8 0 c1.5733 0 2.92 0.23332 4.04 0.7 s2.04 1.1 2.76 1.9 s1.2533 1.7267 1.6 2.78 s0.52 2.1533 0.52 3.3 c0 1.9467 -0.5 3.7 -1.5 5.26 s-2.3133 2.7 -3.94 3.42 l7.04 12.64 l-2.64 0 z M105.986 11.84 l-4.56 -0.000039062 l0 13.68 l4.84 0 c1.36 0 2.48 -0.20668 3.36 -0.62 s1.5667 -0.94664 2.06 -1.6 s0.84 -1.4 1.04 -2.24 s0.3 -1.7 0.3 -2.58 c0 -0.93332 -0.16 -1.8 -0.48 -2.6 s-0.78 -1.5 -1.38 -2.1 s-1.3333 -1.0733 -2.2 -1.42 s-1.86 -0.52 -2.98 -0.52 z"/></g>
			</g>
		</svg>
	